# xmcd CD database file
#
# Track frame offsets:
#	150
#	34019
#	65299
#	81971
#	118640
#	155002
#	184914
#	189811
#	228136
#	254716
#	285996
#
# Disc length: 4262 seconds
#
# Revision: 0
# Processed by: cddbd v1.5.2PL0 Copyright (c) Steve Scherf et al.
# Submitted via: CDex 1.70beta2
#
DISCID=8d10a40b
DTITLE=Ibrahim, Abdullah - Yarona
DYEAR=1995
DGENRE=Jazz
TTITLE0=Nisa
TTITLE1=Duke88
TTITLE2=cherry/Mannenberg
TTITLE3=African River
TTITLE4=Tuan Guru
TTITLE5=Stardance
TTITLE6=African Marketplace
TTITLE7=Tintinyana
TTITLE8=Barakaat
TTITLE9=Weissnicht
TTITLE10=Weisnicht2
EXTD=YEAR: 1995
EXTT0=
EXTT1=
EXTT2=
EXTT3=
EXTT4=
EXTT5=
EXTT6=
EXTT7=
EXTT8=
EXTT9=
EXTT10=
PLAYORDER=
